<?xml version="1.0" encoding="UTF-8"?>
<svg width="1200" height="900" viewBox="0 0 1200 900" xmlns="http://www.w3.org/2000/svg" role="img" aria-labelledby="title desc">
  <title id="title">Process Control System</title><desc id="desc">IKINOVAC Global technical product visual for Process Control System</desc>
  <defs>
    <linearGradient id="bg" x1="0" y1="0" x2="1" y2="1"><stop stop-color="#020B18"/><stop offset=".58" stop-color="#09284A"/><stop offset="1" stop-color="#06182F"/></linearGradient>
    <radialGradient id="halo" cx="50%" cy="45%" r="62%"><stop stop-color="#FFD875" stop-opacity=".22"/><stop offset="1" stop-color="#FFD875" stop-opacity="0"/></radialGradient>
    <linearGradient id="metal" x1="0" y1="0" x2="1" y2="1"><stop stop-color="#ffffff"/><stop offset=".36" stop-color="#BFCEDB"/><stop offset=".7" stop-color="#6f879d"/><stop offset="1" stop-color="#e3edf4"/></linearGradient>
    <pattern id="grid" width="48" height="48" patternUnits="userSpaceOnUse" patternTransform="translate(76 38)"><path d="M48 0H0V48" fill="none" stroke="#b9cfdf" stroke-opacity=".09" stroke-width="1"/></pattern>
    <filter id="glow" x="-30%" y="-30%" width="160%" height="160%"><feGaussianBlur stdDeviation="8" result="blur"/><feMerge><feMergeNode in="blur"/><feMergeNode in="SourceGraphic"/></feMerge></filter>
  </defs>
  <rect width="1200" height="900" fill="url(#bg)"/><rect width="1200" height="900" fill="url(#grid)"/><ellipse cx="600" cy="390" rx="420" ry="330" fill="url(#halo)"/>
  <path d="M88 736H1112" stroke="#E7B43A" stroke-opacity=".56" stroke-width="2"/><path d="M88 730V790H148" fill="none" stroke="#E7B43A" stroke-opacity=".7" stroke-width="3"/>
  <g transform="translate(8 0) rotate(9 600 360)" fill="none" stroke-linejoin="round"><path d="M330 430h540" stroke="#38546f" stroke-width="58" stroke-linecap="round"/><path d="M330 430h540" stroke="url(#metal)" stroke-width="24" stroke-linecap="round"/><rect x="490" y="220" width="220" height="210" rx="25" fill="#183654" stroke="#FFD875" stroke-width="16"/><path d="M548 272h104m-104 54h104m-104 54h104" stroke="#b5c7d6" stroke-width="11"/></g>
  <g fill="#F4F8FA"><text x="88" y="797" font-family="Arial, sans-serif" font-size="26" font-weight="700" letter-spacing="5">IKINOVAC GLOBAL</text><text x="88" y="834" font-family="Arial, sans-serif" font-size="20" fill="#FFD875" letter-spacing="3">IKV-AUT-111 · PRODUCT VISUAL</text></g>
  <circle cx="1088" cy="120" r="10" fill="#FFD875" filter="url(#glow)"/><path d="M1008 120h56" stroke="#FFD875" stroke-width="3"/>
</svg>